<svg xmlns="http://www.w3.org/2000/svg" width="144" height="172.6" viewBox="0 0 144 172.6">
  <g id="Groupe_47" data-name="Groupe 47" transform="translate(-42)" opacity="0.1">
    <path id="Tracé_72" data-name="Tracé 72" d="M170.6,83.142A40.225,40.225,0,0,0,200,70.962,40.222,40.222,0,0,0,212.175,41.57,40.23,40.23,0,0,0,200,12.177a41.562,41.562,0,0,0-58.786,0A40.225,40.225,0,0,0,129.031,41.57a40.223,40.223,0,0,0,12.181,29.394A40.234,40.234,0,0,0,170.6,83.142Z" transform="translate(-57.692)" fill="#fff"/>
    <path id="Tracé_73" data-name="Tracé 73" d="M185.651,296.664a102.7,102.7,0,0,0-1.4-10.906,85.864,85.864,0,0,0-2.682-10.965,54.136,54.136,0,0,0-4.507-10.226,38.58,38.58,0,0,0-6.8-8.858,29.971,29.971,0,0,0-9.764-6.135,33.74,33.74,0,0,0-12.465-2.256c-1.762,0-3.466.723-6.757,2.865-2.025,1.321-4.394,2.849-7.038,4.538a40.322,40.322,0,0,1-9.107,4.013,35.37,35.37,0,0,1-22.278,0,40.232,40.232,0,0,1-9.1-4.011c-2.619-1.674-4.989-3.2-7.045-4.54-3.287-2.142-4.992-2.865-6.754-2.865a33.7,33.7,0,0,0-12.464,2.259,29.945,29.945,0,0,0-9.766,6.135,38.6,38.6,0,0,0-6.795,8.857,54.287,54.287,0,0,0-4.507,10.228,86.126,86.126,0,0,0-2.681,10.964,102.33,102.33,0,0,0-1.4,10.91c-.229,3.3-.345,6.73-.345,10.192,0,9.01,2.864,16.3,8.512,21.683,5.578,5.308,12.959,8,21.934,8h83.108c8.975,0,16.353-2.691,21.933-8,5.649-5.375,8.513-12.67,8.513-21.684C186,303.381,185.881,299.951,185.651,296.664Z" transform="translate(0 -163.944)" fill="#fff"/>
  </g>
</svg>
