<svg id="drive-pdf" xmlns="http://www.w3.org/2000/svg" width="32" height="32" viewBox="0 0 32 32">
  <path id="Tracé_263" data-name="Tracé 263" d="M14.756,9.956h0a6.6,6.6,0,0,0,.356-1.6V8a2.776,2.776,0,0,0,0-1.778V6.044l-.178-.178h0a.174.174,0,0,1-.178.178,7.231,7.231,0,0,0,0,3.911ZM9.422,22.222a3.886,3.886,0,0,0-.889.533A8.759,8.759,0,0,0,6.222,25.6h0c1.067-.178,2.133-1.244,3.2-3.378Zm16.356-2.667c-.178-.178-.889-.711-3.378-.711h-.356v.178a9.542,9.542,0,0,0,3.378.889h.533v-.178h0A.174.174,0,0,1,25.778,19.556ZM28.444,0H3.556A3.566,3.566,0,0,0,0,3.556V28.444A3.566,3.566,0,0,0,3.556,32H28.444A3.566,3.566,0,0,0,32,28.444V3.556A3.566,3.566,0,0,0,28.444,0ZM26.489,20.978a3.55,3.55,0,0,1-1.6.356,12.815,12.815,0,0,1-5.333-1.244,29.272,29.272,0,0,0-7.111,1.422c-.178,0-.178,0-.356.178C9.956,25.422,8.178,27.2,6.756,27.2c-.356,0-.533,0-.711-.178l-.889-.533v-.178a1.6,1.6,0,0,1-.178-.889,6.842,6.842,0,0,1,3.378-3.733c.356-.178.889-.533,1.6-.889.533-.889,1.067-1.956,1.778-3.2a37.612,37.612,0,0,0,1.956-5.156h0c-.711-2.133-1.067-3.378-.356-5.867.178-.711.711-1.422,1.422-1.422h.356a2.527,2.527,0,0,1,1.067.356c1.245,1.244.711,4.089,0,6.4v.178a12.84,12.84,0,0,0,2.844,4.622,12.476,12.476,0,0,0,1.6,1.067c.889,0,1.6-.178,2.311-.178,2.133,0,3.556.356,4.089,1.244a2.254,2.254,0,0,1,.178,1.067A10.89,10.89,0,0,1,26.489,20.978ZM14.933,14.044a37.023,37.023,0,0,1-1.778,4.267c-.356.711-.711,1.244-1.067,1.956h.356a26.894,26.894,0,0,1,5.867-1.6,2.453,2.453,0,0,1-.711-.533A18.074,18.074,0,0,1,14.933,14.044Z" fill="#2c659d"/>
</svg>
