<svg xmlns="http://www.w3.org/2000/svg" width="163" height="44.084" viewBox="0 0 163 44.084">
  <g id="Groupe_6" data-name="Groupe 6" transform="translate(-43.614 -117.498)">
    <g id="Groupe_1" data-name="Groupe 1" transform="translate(97.384 157.306)">
      <path id="Tracé_1" data-name="Tracé 1" d="M185.955,225.806h.856v.489h-.832v1.028h-.392V224.8h1.37v.489h-.979v.514Z" transform="translate(-185.588 -223.971)" fill="#fff"/>
      <path id="Tracé_2" data-name="Tracé 2" d="M192.048,225.93c0-.734.44-1.321.979-1.321s.978.587.978,1.321-.44,1.321-.978,1.321A1.256,1.256,0,0,1,192.048,225.93Zm.391,0c0,.44.245.832.587.832s.587-.391.587-.832-.245-.783-.587-.783C192.684,225.074,192.439,225.49,192.439,225.93Z" transform="translate(-189.601 -223.851)" fill="#fff"/>
      <path id="Tracé_3" data-name="Tracé 3" d="M200.9,227.033h-.391v-2.618l1.223,1.541v-1.493h.392v2.618l-1.223-1.541Z" transform="translate(-194.859 -223.73)" fill="#fff"/>
      <path id="Tracé_4" data-name="Tracé 4" d="M209.046,227.122c-.538,0-.979-.587-.979-1.321s.44-1.321.979-1.321a.984.984,0,0,1,.832.685l-.342.2a.65.65,0,0,0-.489-.391c-.342,0-.587.391-.587.783,0,.44.245.832.587.832a.65.65,0,0,0,.489-.392l.342.2A.869.869,0,0,1,209.046,227.122Z" transform="translate(-199.554 -223.771)" fill="#fff"/>
      <path id="Tracé_5" data-name="Tracé 5" d="M216.141,227.194v-2.52h.392v2.52Z" transform="translate(-204.57 -223.891)" fill="#fff"/>
      <path id="Tracé_6" data-name="Tracé 6" d="M221.248,224.442h.881v.489h-.881v.538h.979v.489h-1.37v-2.52h1.37v.489h-.979Zm.2-1.248-.392-.392.343-.2.342.538h-.294Z" transform="translate(-207.5 -222.607)" fill="#fff"/>
      <path id="Tracé_7" data-name="Tracé 7" d="M227.9,227.194v-2.52h.783c.392,0,.636.342.636.881a.917.917,0,0,1-.342.783c.147.294.342.587.44.832h-.44c-.147-.245-.294-.489-.44-.783h-.245v.783H227.9Zm.783-1.223c.1,0,.245-.147.245-.391,0-.147-.049-.392-.245-.392h-.391v.783Z" transform="translate(-211.873 -223.891)" fill="#fff"/>
      <path id="Tracé_8" data-name="Tracé 8" d="M235.459,225.806h.881v.489h-.881v.538h.979v.489h-1.37V224.8h1.37v.489h-.979Z" transform="translate(-216.328 -223.971)" fill="#fff"/>
      <path id="Tracé_9" data-name="Tracé 9" d="M246.763,227.033h-.392v-2.618l1.223,1.541v-1.493h.391v2.618l-1.223-1.541Z" transform="translate(-223.351 -223.73)" fill="#fff"/>
      <path id="Tracé_10" data-name="Tracé 10" d="M254.445,227.194v-2.52h.392v2.52Z" transform="translate(-228.367 -223.891)" fill="#fff"/>
      <path id="Tracé_11" data-name="Tracé 11" d="M259.752,224.544a.984.984,0,0,1,.832.685l-.342.2a.65.65,0,0,0-.489-.392c-.342,0-.587.392-.587.783,0,.44.245.832.587.832a.65.65,0,0,0,.489-.392l.342.2a1,1,0,0,1-.783.685l-.049.1h.1a.3.3,0,0,1,.147.294c0,.294-.2.294-.294.294a.374.374,0,0,1-.245-.1l.049-.147a.18.18,0,0,0,.147.049.105.105,0,0,0,.1-.1c0-.049-.049-.049-.1-.049a.171.171,0,0,0-.1.049l-.049-.1.1-.294a1.219,1.219,0,0,1-.832-1.272C258.773,225.131,259.213,224.544,259.752,224.544Z" transform="translate(-231.056 -223.81)" fill="#fff"/>
      <path id="Tracé_12" data-name="Tracé 12" d="M266.589,225.93c0-.734.44-1.321.979-1.321s.979.587.979,1.321-.44,1.321-.979,1.321A1.215,1.215,0,0,1,266.589,225.93Zm.342,0c0,.44.245.832.587.832s.587-.391.587-.832-.245-.783-.587-.783C267.225,225.074,266.931,225.49,266.931,225.93Z" transform="translate(-235.911 -223.851)" fill="#fff"/>
      <path id="Tracé_13" data-name="Tracé 13" d="M275.051,227.194v-2.52h.391v2.52Z" transform="translate(-241.169 -223.891)" fill="#fff"/>
      <path id="Tracé_14" data-name="Tracé 14" d="M280.211,226.713a.327.327,0,0,0,.342-.294c0-.2-.2-.245-.391-.294a.755.755,0,0,1-.734-.783.664.664,0,0,1,.734-.734.935.935,0,0,1,.685.342l-.2.392a.779.779,0,0,0-.489-.245c-.1,0-.293.049-.293.245s.2.2.342.245c.294.1.734.147.734.832a.685.685,0,0,1-.734.783,1.123,1.123,0,0,1-.832-.392l.2-.391A1.247,1.247,0,0,0,280.211,226.713Z" transform="translate(-243.858 -223.851)" fill="#fff"/>
      <path id="Tracé_15" data-name="Tracé 15" d="M287.134,225.806h.881v.489h-.881v.538h.979v.489h-1.37V224.8h1.37v.489h-.979Z" transform="translate(-248.432 -223.971)" fill="#fff"/>
      <path id="Tracé_16" data-name="Tracé 16" d="M298.5,225.806h.881v.489H298.5v.538h.979v.489h-1.37V224.8h1.37v.489H298.5Z" transform="translate(-255.495 -223.971)" fill="#fff"/>
      <path id="Tracé_17" data-name="Tracé 17" d="M305.564,225.163v2.079h-.391v-2.079h-.538v-.489h1.419v.489Z" transform="translate(-259.548 -223.891)" fill="#fff"/>
      <path id="Tracé_18" data-name="Tracé 18" d="M315.939,224.674h.734a.788.788,0,0,1,.636.294,1.41,1.41,0,0,1,.293.929,1.324,1.324,0,0,1-.293.93.788.788,0,0,1-.636.294h-.734Zm.734,2.079c.245,0,.538-.147.538-.783s-.294-.783-.538-.783h-.343v1.59l.343-.025Z" transform="translate(-266.571 -223.891)" fill="#fff"/>
      <path id="Tracé_19" data-name="Tracé 19" d="M323.888,225.806h.88v.489h-.88v.538h.979v.489H323.5V224.8h1.37v.489h-.979Z" transform="translate(-271.266 -223.971)" fill="#fff"/>
      <path id="Tracé_20" data-name="Tracé 20" d="M336.333,225.579c0,.489-.244.881-.734.881h-.343v.734h-.391v-2.52h.734C336.088,224.674,336.333,225.065,336.333,225.579Zm-.391,0c0-.2-.1-.44-.294-.44h-.342v.832h.391C335.844,226.019,335.941,225.824,335.941,225.579Z" transform="translate(-278.329 -223.891)" fill="#fff"/>
      <path id="Tracé_21" data-name="Tracé 21" d="M341.906,227.194v-2.52h.783c.391,0,.636.342.636.881a.917.917,0,0,1-.342.783c.147.294.342.587.44.832h-.44c-.147-.245-.293-.489-.44-.783H342.3v.783h-.391Zm.783-1.223c.1,0,.245-.147.245-.391,0-.147-.049-.392-.245-.392H342.3v.783Z" transform="translate(-282.704 -223.891)" fill="#fff"/>
      <path id="Tracé_22" data-name="Tracé 22" d="M348.753,225.93c0-.734.44-1.321.978-1.321s.979.587.979,1.321-.44,1.321-.979,1.321A1.279,1.279,0,0,1,348.753,225.93Zm.416,0c0,.44.245.832.587.832s.587-.391.587-.832-.245-.783-.587-.783C349.414,225.074,349.169,225.49,349.169,225.93Z" transform="translate(-286.958 -223.851)" fill="#fff"/>
      <path id="Tracé_23" data-name="Tracé 23" d="M357.256,227.372l-.881-2.569h.44l.489,1.37.489-1.37h.44Z" transform="translate(-291.693 -223.971)" fill="#fff"/>
      <path id="Tracé_24" data-name="Tracé 24" d="M364.582,225.806h.881v.489h-.881v.538h.979v.489h-1.37V224.8h1.37v.489h-.979Z" transform="translate(-296.548 -223.971)" fill="#fff"/>
      <path id="Tracé_25" data-name="Tracé 25" d="M371.558,227.033h-.391v-2.618l1.223,1.541v-1.493h.392v2.618l-1.223-1.541Z" transform="translate(-300.883 -223.73)" fill="#fff"/>
      <path id="Tracé_26" data-name="Tracé 26" d="M379.767,227.122c-.538,0-.978-.587-.978-1.321s.44-1.321.978-1.321a.984.984,0,0,1,.832.685l-.343.2a.65.65,0,0,0-.489-.391c-.294,0-.587.391-.587.783,0,.44.245.832.587.832a.65.65,0,0,0,.489-.392l.343.2C380.4,226.877,380.11,227.122,379.767,227.122Z" transform="translate(-305.618 -223.771)" fill="#fff"/>
      <path id="Tracé_27" data-name="Tracé 27" d="M387.061,225.806h.881v.489h-.881v.538h.978v.489h-1.37V224.8h1.37v.489h-.978Z" transform="translate(-310.514 -223.971)" fill="#fff"/>
      <path id="Tracé_28" data-name="Tracé 28" d="M397.908,228.586V228.1h.783v.489Z" transform="translate(-317.496 -226.018)" fill="#fff"/>
      <path id="Tracé_29" data-name="Tracé 29" d="M408.172,224.415l.979,2.618h-.44l-.147-.392h-.832l-.147.392h-.44Zm.2,1.786-.245-.636-.245.636Z" transform="translate(-323.235 -223.73)" fill="#fff"/>
      <path id="Tracé_30" data-name="Tracé 30" d="M416.8,225.9v.147a1.034,1.034,0,0,1-.93,1.076c-.538,0-.978-.587-.978-1.321s.44-1.321.978-1.321a1.014,1.014,0,0,1,.832.587l-.343.294a.649.649,0,0,0-.489-.391c-.294,0-.587.391-.587.783,0,.44.245.832.587.832a.57.57,0,0,0,.538-.489h-.685v-.489H416.8Z" transform="translate(-328.051 -223.771)" fill="#fff"/>
      <path id="Tracé_31" data-name="Tracé 31" d="M423.556,225.806h.881v.489h-.881v.538h.979v.489h-1.37V224.8h1.37v.489h-.979Z" transform="translate(-333.187 -223.971)" fill="#fff"/>
      <path id="Tracé_32" data-name="Tracé 32" d="M430.6,227.033h-.392v-2.618l1.223,1.541v-1.493h.392v2.618l-1.223-1.541Z" transform="translate(-337.561 -223.73)" fill="#fff"/>
      <path id="Tracé_33" data-name="Tracé 33" d="M438.742,227.122c-.538,0-.979-.587-.979-1.321s.44-1.321.979-1.321a.984.984,0,0,1,.832.685l-.343.2a.65.65,0,0,0-.489-.391c-.294,0-.587.391-.587.783,0,.44.245.832.587.832a.65.65,0,0,0,.489-.392l.343.2A.889.889,0,0,1,438.742,227.122Z" transform="translate(-342.257 -223.771)" fill="#fff"/>
      <path id="Tracé_34" data-name="Tracé 34" d="M446.1,225.806h.881v.489H446.1v.538h.979v.489h-1.37V224.8h1.37v.489H446.1Z" transform="translate(-347.193 -223.971)" fill="#fff"/>
      <path id="Tracé_35" data-name="Tracé 35" d="M457.779,226.713a.327.327,0,0,0,.343-.294c0-.2-.2-.245-.392-.294a.755.755,0,0,1-.734-.783.664.664,0,0,1,.734-.734.936.936,0,0,1,.685.342l-.2.392a.777.777,0,0,0-.489-.245c-.1,0-.293.049-.293.245s.2.2.342.245c.294.1.734.147.734.832a.685.685,0,0,1-.734.783,1.125,1.125,0,0,1-.832-.392l.2-.391A.97.97,0,0,0,457.779,226.713Z" transform="translate(-354.175 -223.851)" fill="#fff"/>
      <path id="Tracé_36" data-name="Tracé 36" d="M464.311,227.194v-2.52h.391v2.52Z" transform="translate(-358.75 -223.891)" fill="#fff"/>
      <path id="Tracé_37" data-name="Tracé 37" d="M470.95,227.033h-.392v-1.174l-.538.881-.538-.881v1.174h-.391v-2.618l.929,1.492.93-1.492v2.618Z" transform="translate(-361.72 -223.73)" fill="#fff"/>
    </g>
    <g id="Groupe_3" data-name="Groupe 3" transform="translate(97.384 131.442)">
      <path id="Tracé_38" data-name="Tracé 38" d="M195.638,159.7v16.087h-4.285V159.661h-5.765v-3.7h15.893v3.7h-5.843Z" transform="translate(-185.588 -155.338)" fill="#fff"/>
      <g id="Groupe_2" data-name="Groupe 2" transform="translate(12.971)">
        <path id="Tracé_39" data-name="Tracé 39" d="M241.611,174.765,230.7,154.315l-10.868,20.45h5.025l5.843-11.88,5.882,11.88h5.025Z" transform="translate(-219.837 -154.315)" fill="#fff"/>
      </g>
      <path id="Tracé_40" data-name="Tracé 40" d="M295.629,165.529a5.056,5.056,0,0,1,3.311,4.635c0,4.44-3.389,5.765-6.972,5.765H283.4V156.063h8.257c3.857,0,6.466,1.4,6.466,5.492A4.433,4.433,0,0,1,295.629,165.529Zm-3.9-1.636a2.02,2.02,0,0,0,2.064-2.181,2.064,2.064,0,0,0-2.064-1.987h-4.012v4.168Zm2.883,6c0-1.208-.935-2.259-2.766-2.259h-4.168v4.479h4.246C293.72,172.15,294.616,171.06,294.616,169.891Z" transform="translate(-246.354 -155.401)" fill="#fff"/>
      <path id="Tracé_41" data-name="Tracé 41" d="M331.119,165.215A10.7,10.7,0,1,1,341.792,175.5,10.487,10.487,0,0,1,331.119,165.215Zm4.246,0a6.427,6.427,0,1,0,12.854,0,6.428,6.428,0,0,0-12.854,0Z" transform="translate(-276.002 -154.698)" fill="#fff"/>
      <path id="Tracé_42" data-name="Tracé 42" d="M401.291,175.641h-4.246V155.035l13.672,11.8v-11.8H415v20.606l-13.75-11.608v11.608Z" transform="translate(-316.96 -154.762)" fill="#fff"/>
      <path id="Tracé_43" data-name="Tracé 43" d="M457.52,175.724V155.858H461.8v19.866Z" transform="translate(-354.531 -155.274)" fill="#fff"/>
    </g>
    <g id="Groupe_4" data-name="Groupe 4" transform="translate(97.384 122.093)">
      <path id="Tracé_44" data-name="Tracé 44" d="M188.042,134.589a2.4,2.4,0,0,1-2.454-2.376,2.459,2.459,0,0,1,4.6-1.13l-.935.351a1.527,1.527,0,0,0-1.246-.74,1.5,1.5,0,0,0-1.48,1.48,1.479,1.479,0,0,0,1.48,1.48,1.528,1.528,0,0,0,1.246-.74l.935.351A2.423,2.423,0,0,1,188.042,134.589Z" transform="translate(-185.588 -129.759)" fill="#fff"/>
      <path id="Tracé_45" data-name="Tracé 45" d="M216.673,129.734l2.532,4.713h-1.091l-.351-.7h-2.142l-.351.7H214.18Zm.623,3.155-.584-1.207-.584,1.207Z" transform="translate(-203.351 -129.695)" fill="#fff"/>
      <path id="Tracé_46" data-name="Tracé 46" d="M248.148,132.16a1.178,1.178,0,0,1,.779,1.052c0,1.013-.779,1.324-1.6,1.324h-1.986v-4.6h1.869c.857,0,1.48.312,1.48,1.285A.932.932,0,0,1,248.148,132.16Zm-.935-.35a.457.457,0,0,0,.467-.506.5.5,0,0,0-.467-.468h-.935v.974Zm.7,1.363c0-.273-.234-.506-.623-.506h-.974v1.052h.974A.555.555,0,0,0,247.915,133.173Z" transform="translate(-222.713 -129.823)" fill="#fff"/>
      <path id="Tracé_47" data-name="Tracé 47" d="M273.73,134.536v-4.6h1.013v4.6Z" transform="translate(-240.348 -129.823)" fill="#fff"/>
      <path id="Tracé_48" data-name="Tracé 48" d="M296.713,134.344h-.974v-4.713l3.155,2.8v-2.648h1.013V134.5l-3.155-2.766v2.61Z" transform="translate(-254.022 -129.631)" fill="#fff"/>
      <path id="Tracé_49" data-name="Tracé 49" d="M326.784,132.015h2.181v.857h-2.181v.974h2.454v.857h-3.467v-4.557h3.467V131h-2.454Z" transform="translate(-272.68 -129.951)" fill="#fff"/>
      <path id="Tracé_50" data-name="Tracé 50" d="M354.952,130.9v3.7h-1.013v-3.7h-1.324v-.857h3.662v.857Z" transform="translate(-289.357 -129.887)" fill="#fff"/>
    </g>
    <g id="Groupe_5" data-name="Groupe 5" transform="translate(43.614 117.498)">
      <path id="Tracé_51" data-name="Tracé 51" d="M85.3,198.461l-3.5-6.628a26.951,26.951,0,0,1-7.175,7.206,9.441,9.441,0,0,0,2.736-.243s.365,3.709-1.855,5.533a4.354,4.354,0,0,1-2.615.973,9.74,9.74,0,0,1-2.828-.274c-.334-2.067-.578-2.706-1.064-3.314-7.327,2.28-14.928.578-21.282-1.642-.73,1.307-1.368,2.523-1.916,3.618-1.368,2.523-2.189,4.074-2.189,4.074H90.252Z" transform="translate(-43.614 -163.68)" fill="#fff"/>
      <path id="Tracé_52" data-name="Tracé 52" d="M146.33,190.629h0C146.421,190.751,146.391,190.72,146.33,190.629Z" transform="translate(-107.414 -162.932)" fill="#fff"/>
      <path id="Tracé_53" data-name="Tracé 53" d="M76.728,117.5c0,.486-10.367,19.944-17.3,32.835a37.719,37.719,0,0,0,12.86-1.885,2.5,2.5,0,0,0-1.7-1.916c-.73-.243-1.216-.273-1.49-.365a4.464,4.464,0,0,1,2.22-.79,2.69,2.69,0,0,1,2.158-.639c2.372.183,2.979,1.4,3.588,1.307a27.552,27.552,0,0,0,2.219-1.794c1.095-1.156.973-1,1.095-1.156a22.117,22.117,0,0,0,4.743-9.85Z" transform="translate(-53.439 -117.498)" fill="#fff"/>
    </g>
  </g>
</svg>
