<svg xmlns="http://www.w3.org/2000/svg" width="23.333" height="18.472" viewBox="0 0 23.333 18.472">
  <g id="Groupe_1334" data-name="Groupe 1334" transform="translate(0 -63.997)">
    <path id="Tracé_279" data-name="Tracé 279" d="M17.472,64.05,5.45,68.858H2.187A2.191,2.191,0,0,0,0,71.046v2.673a1.986,1.986,0,0,0,2.187,1.944h.826L3.9,81.843a.729.729,0,0,0,.721.626H7.534a.729.729,0,0,0,.725-.811l-.574-5.1,9.785,3.914a.729.729,0,0,0,1-.677V64.726a.728.728,0,0,0-1-.677ZM1.458,73.719V71.046a.731.731,0,0,1,.729-.729H4.861v3.889H2.187C1.855,74.205,1.458,74.121,1.458,73.719Zm5.261,7.291H5.25l-.763-5.347H5.45l.7.28Zm10.295-2.291L7.12,74.761a.727.727,0,0,0-.127-.052l-.674-.269V70.081L17.013,65.8Z" fill="#2c2c2c"/>
    <path id="Tracé_280" data-name="Tracé 280" d="M427.844,131.259l2.43-1.944a.73.73,0,1,0-.912-1.139l-2.431,1.944a.73.73,0,0,0,.912,1.139Z" transform="translate(-407.215 -61.102)" fill="#2c2c2c"/>
    <path id="Tracé_281" data-name="Tracé 281" d="M427.844,309.508a.73.73,0,0,0-.912,1.139l2.431,1.944a.73.73,0,1,0,.912-1.139Z" transform="translate(-407.215 -234.171)" fill="#2c2c2c"/>
    <path id="Tracé_282" data-name="Tracé 282" d="M429.827,240H427.4a.729.729,0,0,0,0,1.458h2.43a.729.729,0,1,0,0-1.458Z" transform="translate(-407.223 -167.982)" fill="#2c2c2c"/>
  </g>
</svg>
