<svg xmlns="http://www.w3.org/2000/svg" width="89.5" height="89.5" viewBox="0 0 89.5 89.5">
  <g id="Groupe_29" data-name="Groupe 29" transform="translate(0 0)">
    <g id="Groupe_8" data-name="Groupe 8" transform="translate(10.749 59.087)">
      <g id="Groupe_7" data-name="Groupe 7">
        <path id="Tracé_54" data-name="Tracé 54" d="M69.666,338.019H63.242a1.748,1.748,0,0,0-1.748,1.748v6.424a1.748,1.748,0,0,0,1.748,1.748h6.424a1.748,1.748,0,0,0,1.748-1.748v-6.424A1.748,1.748,0,0,0,69.666,338.019Zm-1.748,6.424H64.99v-2.928h2.928Z" transform="translate(-61.494 -338.019)" fill="#f3cd4b"/>
      </g>
    </g>
    <g id="Groupe_10" data-name="Groupe 10" transform="translate(24.989 59.087)">
      <g id="Groupe_9" data-name="Groupe 9">
        <path id="Tracé_55" data-name="Tracé 55" d="M151.124,338.019H144.7a1.748,1.748,0,0,0-1.748,1.748v6.424a1.748,1.748,0,0,0,1.748,1.748h6.424a1.748,1.748,0,0,0,1.748-1.748v-6.424A1.748,1.748,0,0,0,151.124,338.019Zm-1.748,6.424h-2.928v-2.928h2.928Z" transform="translate(-142.952 -338.019)" fill="#f3cd4b"/>
      </g>
    </g>
    <g id="Groupe_12" data-name="Groupe 12" transform="translate(10.749 72.577)">
      <g id="Groupe_11" data-name="Groupe 11">
        <path id="Tracé_56" data-name="Tracé 56" d="M69.666,415.19H63.242a1.748,1.748,0,0,0-1.748,1.748v6.424a1.748,1.748,0,0,0,1.748,1.748h6.424a1.748,1.748,0,0,0,1.748-1.748v-6.424A1.748,1.748,0,0,0,69.666,415.19Zm-1.748,6.424H64.99v-2.928h2.928Z" transform="translate(-61.494 -415.19)" fill="#f3cd4b"/>
      </g>
    </g>
    <g id="Groupe_14" data-name="Groupe 14" transform="translate(24.989 72.577)">
      <g id="Groupe_13" data-name="Groupe 13">
        <path id="Tracé_57" data-name="Tracé 57" d="M151.124,415.19H144.7a1.748,1.748,0,0,0-1.748,1.748v6.424a1.748,1.748,0,0,0,1.748,1.748h6.424a1.748,1.748,0,0,0,1.748-1.748v-6.424A1.748,1.748,0,0,0,151.124,415.19Zm-1.748,6.424h-2.928v-2.928h2.928Z" transform="translate(-142.952 -415.19)" fill="#f3cd4b"/>
      </g>
    </g>
    <g id="Groupe_16" data-name="Groupe 16" transform="translate(23.586 44.662)">
      <g id="Groupe_15" data-name="Groupe 15">
        <path id="Tracé_58" data-name="Tracé 58" d="M137.914,256.012a1.747,1.747,0,1,0,.512,1.236A1.764,1.764,0,0,0,137.914,256.012Z" transform="translate(-134.93 -255.5)" fill="#f3cd4b"/>
      </g>
    </g>
    <g id="Groupe_18" data-name="Groupe 18" transform="translate(0 0)">
      <g id="Groupe_17" data-name="Groupe 17" transform="translate(0 0)">
        <path id="Tracé_59" data-name="Tracé 59" d="M87.752,86H86V41.593a1.748,1.748,0,0,0-1.748-1.748H75.888V17.325a1.748,1.748,0,0,0-.929-1.544L45.592.2a1.748,1.748,0,0,0-2.567,1.544v17.83H25.334a1.748,1.748,0,0,0-1.748,1.748V39.457a1.748,1.748,0,0,0,3.5,0V23.074H50.856v6.981H44.772a1.748,1.748,0,1,0,0,3.5h6.083v6.293H44.772a1.748,1.748,0,1,0,0,3.5h6.083v6.293H44.772a1.748,1.748,0,1,0,0,3.5h6.083v6.293H44.772a1.748,1.748,0,1,0,0,3.5h6.083v6.293H44.772a1.748,1.748,0,1,0,0,3.5h6.083V79H44.772a1.748,1.748,0,1,0,0,3.5h6.083V86h-8.9V53.84a1.748,1.748,0,0,0-1.748-1.748H5.244A1.748,1.748,0,0,0,3.5,53.84V86H1.748a1.748,1.748,0,0,0,0,3.5h86a1.748,1.748,0,0,0,0-3.5Zm-49.3,0H6.992V55.588H38.457ZM60.133,41.593V86H54.352V21.326A1.748,1.748,0,0,0,52.6,19.578H46.52V4.654L72.392,18.377V39.844H61.881A1.748,1.748,0,0,0,60.133,41.593Zm22.375,8.041H73.069a1.748,1.748,0,0,0,0,3.5h9.439v6.293H73.069a1.748,1.748,0,0,0,0,3.5h9.439v6.293H73.069a1.748,1.748,0,0,0,0,3.5h9.439V79h-5.3a1.748,1.748,0,0,0,0,3.5h5.3V86H63.629V43.341H82.508Z" transform="translate(0 0)" fill="#f3cd4b"/>
      </g>
    </g>
    <g id="Groupe_20" data-name="Groupe 20" transform="translate(67.533 79.001)">
      <g id="Groupe_19" data-name="Groupe 19">
        <path id="Tracé_60" data-name="Tracé 60" d="M389.314,452.452a1.747,1.747,0,1,0,.512,1.236A1.757,1.757,0,0,0,389.314,452.452Z" transform="translate(-386.33 -451.94)" fill="#f3cd4b"/>
      </g>
    </g>
    <g id="Groupe_22" data-name="Groupe 22" transform="translate(58.385 19.753)">
      <g id="Groupe_21" data-name="Groupe 21">
        <path id="Tracé_61" data-name="Tracé 61" d="M335.748,113A1.748,1.748,0,0,0,334,114.748v3.263a1.748,1.748,0,1,0,3.5,0v-3.263A1.748,1.748,0,0,0,335.748,113Z" transform="translate(-334 -113)" fill="#f3cd4b"/>
      </g>
    </g>
    <g id="Groupe_24" data-name="Groupe 24" transform="translate(58.385 30.055)">
      <g id="Groupe_23" data-name="Groupe 23">
        <path id="Tracé_62" data-name="Tracé 62" d="M335.748,171.937A1.748,1.748,0,0,0,334,173.685v3.6a1.748,1.748,0,1,0,3.5,0v-3.6A1.748,1.748,0,0,0,335.748,171.937Z" transform="translate(-334 -171.937)" fill="#f3cd4b"/>
      </g>
    </g>
    <g id="Groupe_26" data-name="Groupe 26" transform="translate(65.377 19.753)">
      <g id="Groupe_25" data-name="Groupe 25">
        <path id="Tracé_63" data-name="Tracé 63" d="M375.748,113A1.748,1.748,0,0,0,374,114.748v3.263a1.748,1.748,0,0,0,3.5,0v-3.263A1.748,1.748,0,0,0,375.748,113Z" transform="translate(-374 -113)" fill="#f3cd4b"/>
      </g>
    </g>
    <g id="Groupe_28" data-name="Groupe 28" transform="translate(65.377 30.055)">
      <g id="Groupe_27" data-name="Groupe 27">
        <path id="Tracé_64" data-name="Tracé 64" d="M375.748,171.937A1.748,1.748,0,0,0,374,173.685v3.6a1.748,1.748,0,0,0,3.5,0v-3.6A1.748,1.748,0,0,0,375.748,171.937Z" transform="translate(-374 -171.937)" fill="#f3cd4b"/>
      </g>
    </g>
  </g>
</svg>
