<svg xmlns="http://www.w3.org/2000/svg" width="19.5" height="18.276" viewBox="0 0 19.5 18.276">
  <g id="Groupe_1207" data-name="Groupe 1207" transform="translate(368.29 -76.141)">
    <path id="Tracé_267" data-name="Tracé 267" d="M-352.661,90.6a.778.778,0,0,1,.006,1.1,9.072,9.072,0,0,1-6.5,2.713,9.149,9.149,0,0,1-9.138-9.138,9.149,9.149,0,0,1,9.138-9.138,9.073,9.073,0,0,1,6.5,2.713.778.778,0,0,1-.006,1.1.778.778,0,0,1-1.1-.006,7.527,7.527,0,0,0-5.39-2.251,7.59,7.59,0,0,0-7.581,7.581,7.59,7.59,0,0,0,7.581,7.581,7.527,7.527,0,0,0,5.39-2.251A.779.779,0,0,1-352.661,90.6Z" fill="#376da3"/>
    <path id="Tracé_268" data-name="Tracé 268" d="M-246.209,163.157a.778.778,0,0,0-1.1,0,.779.779,0,0,0,0,1.1l1.4,1.4h-8.742a.779.779,0,0,0-.778.778.779.779,0,0,0,.778.779h8.742l-1.4,1.4a.779.779,0,0,0,0,1.1.776.776,0,0,0,.55.228.776.776,0,0,0,.55-.228l2.729-2.729a.779.779,0,0,0,.228-.55.778.778,0,0,0-.228-.55Z" transform="translate(-105.538 -81.157)" fill="#376da3"/>
  </g>
</svg>
