<svg xmlns="http://www.w3.org/2000/svg" width="23" height="22.999" viewBox="0 0 23 22.999">
  <g id="Layer_46" data-name="Layer 46" transform="translate(-48 -48.004)">
    <path id="Tracé_95" data-name="Tracé 95" d="M144,176h1.769v1.769H144Z" transform="translate(-90.692 -120.919)" fill="#2c2c2c"/>
    <path id="Tracé_96" data-name="Tracé 96" d="M144,240h1.769v1.769H144Z" transform="translate(-90.692 -181.381)" fill="#2c2c2c"/>
    <path id="Tracé_97" data-name="Tracé 97" d="M144,304h1.769v1.769H144Z" transform="translate(-90.692 -241.843)" fill="#2c2c2c"/>
    <path id="Tracé_98" data-name="Tracé 98" d="M208,176h1.769v1.769H208Z" transform="translate(-151.154 -120.919)" fill="#2c2c2c"/>
    <path id="Tracé_99" data-name="Tracé 99" d="M208,240h1.769v1.769H208Z" transform="translate(-151.154 -181.381)" fill="#2c2c2c"/>
    <path id="Tracé_100" data-name="Tracé 100" d="M208,304h1.769v1.769H208Z" transform="translate(-151.154 -241.843)" fill="#2c2c2c"/>
    <path id="Tracé_101" data-name="Tracé 101" d="M272,176h1.769v1.769H272Z" transform="translate(-211.616 -120.919)" fill="#2c2c2c"/>
    <path id="Tracé_102" data-name="Tracé 102" d="M272,240h1.769v1.769H272Z" transform="translate(-211.616 -181.381)" fill="#2c2c2c"/>
    <path id="Tracé_103" data-name="Tracé 103" d="M272,304h1.769v1.769H272Z" transform="translate(-211.616 -241.843)" fill="#2c2c2c"/>
    <path id="Tracé_104" data-name="Tracé 104" d="M70.115,69.234H69.23V54.2a.885.885,0,0,0-.489-.791L65.692,51.88V48.888a.885.885,0,0,0-1.1-.858L50.44,51.569a.885.885,0,0,0-.67.858V66.58a.885.885,0,1,0,1.769,0V53.117l12.384-3.1V69.234H60.384V66.58A.885.885,0,0,0,59.5,65.7H55.961a.885.885,0,0,0-.885.885v2.654H48.885a.885.885,0,0,0,0,1.769h21.23a.885.885,0,1,0,0-1.769ZM65.692,53.858l1.769.885V69.234H65.692ZM56.846,67.465h1.769v1.769H56.846Z" transform="translate(0 0)" fill="#2c2c2c"/>
  </g>
</svg>
