<svg xmlns="http://www.w3.org/2000/svg" width="16.977" height="19.594" viewBox="0 0 16.977 19.594">
  <path id="Notifications_icon_copy" data-name="Notifications icon copy" d="M1719.692,71.954a.731.731,0,0,1,.1-1.043l0,0a.778.778,0,0,1,1.076.1,2.04,2.04,0,0,0,.417.4,2.009,2.009,0,0,0,2.773-.4h.009a.779.779,0,0,1,1.077-.1.73.73,0,0,1,.105,1.041l-.005.006a3.531,3.531,0,0,1-4.884.658,3.463,3.463,0,0,1-.671-.658Zm-1.639-2.724a4.862,4.862,0,0,1-3.066-1.507,3.949,3.949,0,0,1-.967-2.683v-.119a4.07,4.07,0,0,1,.727-2.057l.072-.089a3.732,3.732,0,0,0,.886-1.724V59.273a.769.769,0,0,1,.994-.416.752.752,0,0,1,.468.57V61.2a.411.411,0,0,1,0,.1,5.119,5.119,0,0,1-1.223,2.4,2.446,2.446,0,0,0-.389,1.225v.19a2.492,2.492,0,0,0,.584,1.68,3.34,3.34,0,0,0,2.073.966,40.765,40.765,0,0,0,8.576,0,3.346,3.346,0,0,0,2.117-1.009,2.462,2.462,0,0,0,.558-1.629v-.2a2.538,2.538,0,0,0-.38-1.232,5.132,5.132,0,0,1-1.3-2.4.549.549,0,0,1,0-.1V59.411c-.257-2.6-2.924-4.213-5.245-4.213a5.838,5.838,0,0,0-2.817.715.781.781,0,0,1-.776,0,.731.731,0,0,1-.279-1.007.748.748,0,0,1,.316-.293,7.337,7.337,0,0,1,3.49-.905c3.065,0,6.5,2.12,6.89,5.526v1.776a3.65,3.65,0,0,0,.886,1.724.74.74,0,0,1,.071.1,3.921,3.921,0,0,1,.676,2.006l-.027.18a4.007,4.007,0,0,1-.94,2.7,4.915,4.915,0,0,1-3.118,1.509,41.505,41.505,0,0,1-8.858,0Z" transform="translate(-1714.02 -53.713)" fill="#fff"/>
</svg>
