<svg xmlns="http://www.w3.org/2000/svg" width="23.25" height="23.25" viewBox="0 0 23.25 23.25">
  <path id="Tracé_270" data-name="Tracé 270" d="M23.243,19.75,21.836,9.669a.681.681,0,0,0-.675-.587h-.233A4.319,4.319,0,0,0,18.734,5.55a3.179,3.179,0,1,0-4.228,0,4.319,4.319,0,0,0-2.194,3.532H10.938A4.319,4.319,0,0,0,8.744,5.55a3.179,3.179,0,1,0-4.228,0A4.319,4.319,0,0,0,2.322,9.082H2.089a.681.681,0,0,0-.675.587L.006,19.75a.681.681,0,0,0,.675.775H2.165a4.292,4.292,0,0,0-.3,1.589v.454a.681.681,0,0,0,.681.681H9.809a.681.681,0,0,0,.681-.681v-.454a4.291,4.291,0,0,0-.3-1.589h2.877a4.291,4.291,0,0,0-.3,1.589v.454a.681.681,0,0,0,.681.681h7.266a.681.681,0,0,0,.681-.681v-.454a4.292,4.292,0,0,0-.3-1.589h1.484a.681.681,0,0,0,.675-.775ZM14.8,3.179A1.816,1.816,0,1,1,16.62,5,1.818,1.818,0,0,1,14.8,3.179ZM16.62,6.357a2.956,2.956,0,0,1,2.943,2.725H13.677A2.956,2.956,0,0,1,16.62,6.357Zm-9.99-5A1.816,1.816,0,1,1,4.813,3.179,1.818,1.818,0,0,1,6.63,1.362Zm0,5A2.956,2.956,0,0,1,9.573,9.082H3.687A2.956,2.956,0,0,1,6.63,6.357Zm-3.4,15.53a2.937,2.937,0,0,1,.635-1.61l0,0a2.947,2.947,0,0,1,4.612,0l0,0a2.936,2.936,0,0,1,.635,1.61ZM6.176,17.8a1.816,1.816,0,1,1,1.816-1.816A1.818,1.818,0,0,1,6.176,17.8Zm7.955,4.087a2.937,2.937,0,0,1,.635-1.61l0,0a2.947,2.947,0,0,1,4.612,0l0,0a2.937,2.937,0,0,1,.635,1.61Zm1.127-5.9A1.816,1.816,0,1,1,17.074,17.8,1.818,1.818,0,0,1,15.258,15.984Zm4.959,3.179a4.342,4.342,0,0,0-1.029-.808,3.179,3.179,0,1,0-4.228,0,4.342,4.342,0,0,0-1.029.808H9.319a4.341,4.341,0,0,0-1.029-.808,3.179,3.179,0,1,0-4.228,0,4.342,4.342,0,0,0-1.029.808H1.464l1.217-8.719H20.568l1.218,8.719Z" transform="translate(0)" fill="#2c2c2c"/>
</svg>
